<svg xmlns="http://www.w3.org/2000/svg" width="900" height="640" viewBox="0 0 900 640">
  <defs>
    <linearGradient id="bg" x1="0" x2="1">
      <stop offset="0" stop-color="#eef2ff"/>
      <stop offset="1" stop-color="#ecfeff"/>
    </linearGradient>
    <linearGradient id="g" x1="0" x2="1">
      <stop offset="0" stop-color="#34d399"/>
      <stop offset="1" stop-color="#3b82f6"/>
    </linearGradient>
  </defs>

  <rect x="0" y="0" width="900" height="640" rx="28" fill="url(#bg)"/>
  <rect x="44" y="44" width="812" height="552" rx="26" fill="#ffffff" opacity=".94"/>
  <rect x="78" y="90" width="350" height="220" rx="20" fill="#ffffff" stroke="#e5e7eb"/>
  <text x="100" y="125" font-family="system-ui, -apple-system, Segoe UI, Roboto" font-size="22" fill="#111827" font-weight="700">Resume Score</text>

  <!-- Gauge -->
  <path d="M130 240 A90 90 0 0 1 320 240" fill="none" stroke="#eef2ff" stroke-width="18" stroke-linecap="round"/>
  <path d="M130 240 A90 90 0 0 1 300 180" fill="none" stroke="url(#g)" stroke-width="18" stroke-linecap="round"/>
  <text x="210" y="225" font-family="system-ui" font-size="32" font-weight="800" fill="#111827">92</text>
  <text x="250" y="225" font-family="system-ui" font-size="18" font-weight="700" fill="#6b7280">/100</text>

  <!-- Left list -->
  <rect x="78" y="340" width="350" height="216" rx="20" fill="#ffffff" stroke="#e5e7eb"/>
  <text x="100" y="378" font-family="system-ui" font-size="20" font-weight="800" fill="#111827">CONTENT</text>
  <rect x="100" y="406" width="300" height="12" rx="6" fill="#eef2ff"/>
  <rect x="100" y="406" width="240" height="12" rx="6" fill="#34d399"/>

  <rect x="100" y="440" width="300" height="12" rx="6" fill="#eef2ff"/>
  <rect x="100" y="440" width="190" height="12" rx="6" fill="#3b82f6"/>

  <rect x="100" y="474" width="300" height="12" rx="6" fill="#eef2ff"/>
  <rect x="100" y="474" width="150" height="12" rx="6" fill="#f59e0b"/>

  <rect x="100" y="508" width="300" height="12" rx="6" fill="#eef2ff"/>
  <rect x="100" y="508" width="120" height="12" rx="6" fill="#ef4444"/>

  <!-- Right panel -->
  <rect x="456" y="90" width="400" height="466" rx="20" fill="#ffffff" stroke="#e5e7eb"/>
  <rect x="486" y="128" width="340" height="36" rx="10" fill="#eef2ff"/>
  <text x="506" y="152" font-family="system-ui" font-size="16" font-weight="800" fill="#111827">ATS PARSE RATE</text>

  <rect x="486" y="194" width="340" height="10" rx="5" fill="#e5e7eb"/>
  <rect x="486" y="214" width="340" height="10" rx="5" fill="#e5e7eb"/>
  <rect x="486" y="234" width="340" height="10" rx="5" fill="#e5e7eb"/>

  <rect x="486" y="305" width="340" height="14" rx="7" fill="#eef2ff"/>
  <rect x="486" y="305" width="310" height="14" rx="7" fill="#34d399"/>
  <circle cx="792" cy="312" r="10" fill="#34d399" opacity=".35"/>
  <circle cx="792" cy="312" r="6" fill="#34d399"/>

  <rect x="486" y="352" width="340" height="10" rx="5" fill="#e5e7eb"/>
  <rect x="486" y="372" width="340" height="10" rx="5" fill="#e5e7eb"/>
  <rect x="486" y="392" width="340" height="10" rx="5" fill="#e5e7eb"/>
  <rect x="486" y="412" width="340" height="10" rx="5" fill="#e5e7eb"/>

  <text x="486" y="532" font-family="system-ui" font-size="14" font-weight="700" fill="#6b7280">
    Clean layout • clear sections • keyword rich
  </text>
</svg>
